<svg width="43" height="43" viewBox="0 0 43 43" fill="none" xmlns="http://www.w3.org/2000/svg">
<path fill-rule="evenodd" clip-rule="evenodd" d="M7.16683 27.9247L14.3335 20.758L20.6043 27.0289L32.2502 15.383L35.8335 18.9664V7.16683H7.16683V27.9247ZM7.16683 32.9923V35.8335H24.3414L14.3335 25.8256L7.16683 32.9923ZM29.409 35.8335H35.8335V24.034L32.2502 20.4506L23.1381 29.5627L29.409 35.8335ZM7.16683 3.5835H35.8335C37.8125 3.5835 39.4168 5.18781 39.4168 7.16683V35.8335C39.4168 37.8125 37.8125 39.4168 35.8335 39.4168H7.16683C5.18781 39.4168 3.5835 37.8125 3.5835 35.8335V7.16683C3.5835 5.18781 5.18781 3.5835 7.16683 3.5835ZM19.7085 8.9585C22.677 8.9585 25.0835 11.365 25.0835 14.3335C25.0835 17.302 22.677 19.7085 19.7085 19.7085C16.74 19.7085 14.3335 17.302 14.3335 14.3335C14.3335 11.365 16.74 8.9585 19.7085 8.9585ZM19.7085 12.5418C18.719 12.5418 17.9168 13.344 17.9168 14.3335C17.9168 15.323 18.719 16.1252 19.7085 16.1252C20.698 16.1252 21.5002 15.323 21.5002 14.3335C21.5002 13.344 20.698 12.5418 19.7085 12.5418Z" fill="#E4E6F1"/>
</svg>
